<svg width="128" height="128" viewBox="0 0 128 128" fill="none" xmlns="http://www.w3.org/2000/svg">
<!-- Viewfinder bump -->
<path d="M44 34V26C44 22.6863 46.6863 20 50 20H78C81.3137 20 84 22.6863 84 26V34Z" fill="url(#paint0_body)"/>
<!-- Camera body -->
<rect x="4" y="32" width="120" height="76" rx="8" fill="url(#paint0_body)"/>
<!-- Camera grip (darker bottom section for depth) -->
<path d="M4 88H124V100C124 104.418 120.418 108 116 108H12C7.58172 108 4 104.418 4 100V88Z" fill="url(#paint1_chin)"/>
<!-- Lens outer ring -->
<circle cx="64" cy="60" r="24" fill="url(#paint2_ring)"/>
<!-- Lens inner -->
<circle cx="64" cy="60" r="16" fill="#142E50"/>
<!-- Lens aperture -->
<circle cx="64" cy="60" r="8" fill="#102A4C"/>
<!-- Flash -->
<rect x="14" y="40" width="14" height="8" rx="2" fill="#48B9C7"/>
<defs>
<linearGradient id="paint0_body" x1="4" y1="108" x2="124" y2="20" gradientUnits="userSpaceOnUse">
<stop stop-color="#6582AA"/>
<stop offset="1" stop-color="#82A1CA"/>
</linearGradient>
<linearGradient id="paint1_chin" x1="4" y1="108" x2="124" y2="88" gradientUnits="userSpaceOnUse">
<stop stop-color="#485F84"/>
<stop offset="1" stop-color="#6582AA"/>
</linearGradient>
<linearGradient id="paint2_ring" x1="88" y1="36" x2="40" y2="84" gradientUnits="userSpaceOnUse">
<stop stop-color="#C9E0FF"/>
<stop offset="1" stop-color="#E4F0FF"/>
</linearGradient>
</defs>
</svg>
